<?xml version="1.0" standalone="no"?><!DOCTYPE svg PUBLIC "-//W3C//DTD SVG 1.1//EN" "http://www.w3.org/Graphics/SVG/1.1/DTD/svg11.dtd"><svg t="1649065272893" class="icon" viewBox="0 0 1024 1024" version="1.1" xmlns="http://www.w3.org/2000/svg" p-id="2764" xmlns:xlink="http://www.w3.org/1999/xlink" width="64" height="64"><defs><style type="text/css"></style></defs><path d="M480.41267874 933.875c-42.11642889 0-78.96830356-31.58732126-78.96830355-78.96830356v-52.6455357c-152.67205372 31.58732126-184.25937497-63.17464252-184.25937497-63.17464252-26.32276785-63.17464252-63.17464252-78.96830356-63.17464253-78.96830355-47.3809823-31.58732126 5.2645534-31.58732126 5.26455342-31.58732127 52.6455357 5.2645534 84.23285696 57.91008911 84.23285696 57.91008912 47.3809823 84.23285696 126.34928586 57.91008911 157.93660711 47.38098229 5.2645534-36.85187467 21.05821445-57.91008911 36.85187467-73.70375014-121.08473163-15.79366104-247.43401748-63.17464252-247.43401748-268.49223194 0-57.91008911 21.05821445-110.55562482 57.9100891-147.40749948-10.52910682-21.05821445-26.32276785-73.70375015 5.2645534-152.67205371C254.03687488 91.54642954 301.41785718 75.75276849 406.70892859 149.45651864 448.82535748 138.92741184 496.20633896 133.66285761 543.58732126 133.66285761c47.3809823 0 94.76196377 5.2645534 136.87839267 15.79366104C780.49223193 75.75276849 827.87321424 91.54642954 827.87321424 91.54642954c31.58732126 73.70375015 10.52910682 131.61383926 5.26455339 142.14294607 36.85187467 36.85187467 57.91008911 89.49741038 57.91008912 147.40750031 0 210.58214282-126.34928586 257.96312512-247.43401749 268.49223192 21.05821445 15.79366104 36.85187467 52.6455357 36.85187467 100.02651719v105.29107141c0 42.11642889-36.85187467 78.96830356-78.96830356 78.96830356H480.41267874z" p-id="2765"></path></svg>